<?xml version="1.0" standalone="no"?>
<svg xmlns:xlink="http://www.w3.org/1999/xlink" xmlns="http://www.w3.org/2000/svg" id="8192 bytes1000" class="recharts-surface" width="1200" height="800" style="width: 100%; height: 100%;" viewBox="0 0 1200 800"><title/><desc/><defs><clipPath id="8192 bytes1000-clip"><rect x="80" y="5" height="741" width="1090"/></clipPath></defs><text x="600" y="20" fill="#777" font-weight="bold" text-anchor="middle" dominant-baseline="central"><tspan font-size="16">8192 bytes / 1000 Connections</tspan></text><g class="recharts-cartesian-grid"><g class="recharts-cartesian-grid-horizontal"><line stroke-dasharray="3 3" stroke="#ccc" fill="none" x="80" y="5" width="1090" height="741" x1="80" y1="746" x2="1170" y2="746"/><line stroke-dasharray="3 3" stroke="#ccc" fill="none" x="80" y="5" width="1090" height="741" x1="80" y1="560.75" x2="1170" y2="560.75"/><line stroke-dasharray="3 3" stroke="#ccc" fill="none" x="80" y="5" width="1090" height="741" x1="80" y1="375.5" x2="1170" y2="375.5"/><line stroke-dasharray="3 3" stroke="#ccc" fill="none" x="80" y="5" width="1090" height="741" x1="80" y1="190.25" x2="1170" y2="190.25"/><line stroke-dasharray="3 3" stroke="#ccc" fill="none" x="80" y="5" width="1090" height="741" x1="80" y1="5" x2="1170" y2="5"/></g><g class="recharts-cartesian-grid-vertical"><line stroke-dasharray="3 3" stroke="#ccc" fill="none" x="80" y="5" width="1090" height="741" x1="189" y1="5" x2="189" y2="746"/><line stroke-dasharray="3 3" stroke="#ccc" fill="none" x="80" y="5" width="1090" height="741" x1="407" y1="5" x2="407" y2="746"/><line stroke-dasharray="3 3" stroke="#ccc" fill="none" x="80" y="5" width="1090" height="741" x1="625" y1="5" x2="625" y2="746"/><line stroke-dasharray="3 3" stroke="#ccc" fill="none" x="80" y="5" width="1090" height="741" x1="843" y1="5" x2="843" y2="746"/><line stroke-dasharray="3 3" stroke="#ccc" fill="none" x="80" y="5" width="1090" height="741" x1="1061" y1="5" x2="1061" y2="746"/><line stroke-dasharray="3 3" stroke="#ccc" fill="none" x="80" y="5" width="1090" height="741" x1="80" y1="5" x2="80" y2="746"/><line stroke-dasharray="3 3" stroke="#ccc" fill="none" x="80" y="5" width="1090" height="741" x1="1170" y1="5" x2="1170" y2="746"/></g></g><g class="recharts-layer recharts-cartesian-axis recharts-xAxis xAxis"><line orientation="bottom" width="1090" height="30" x="80" y="746" class="recharts-cartesian-axis-line" stroke="#666" fill="none" x1="80" y1="746" x2="1170" y2="746"/><g class="recharts-cartesian-axis-ticks"><g class="recharts-layer recharts-cartesian-axis-tick"><line orientation="bottom" width="1090" height="30" x="80" y="746" class="recharts-cartesian-axis-tick-line" stroke="#666" fill="none" x1="189" y1="752" x2="189" y2="746"/><text orientation="bottom" width="1090" height="30" stroke="none" x="189" y="754" class="recharts-text recharts-cartesian-axis-tick-value" text-anchor="middle" fill="#666"><tspan x="189" dy="0.71em">cws (C)</tspan></text></g><g class="recharts-layer recharts-cartesian-axis-tick"><line orientation="bottom" width="1090" height="30" x="80" y="746" class="recharts-cartesian-axis-tick-line" stroke="#666" fill="none" x1="407" y1="752" x2="407" y2="746"/><text orientation="bottom" width="1090" height="30" stroke="none" x="407" y="754" class="recharts-text recharts-cartesian-axis-tick-value" text-anchor="middle" fill="#666"><tspan x="407" dy="0.71em">uWebSockets (C++)</tspan></text></g><g class="recharts-layer recharts-cartesian-axis-tick"><line orientation="bottom" width="1090" height="30" x="80" y="746" class="recharts-cartesian-axis-tick-line" stroke="#666" fill="none" x1="625" y1="752" x2="625" y2="746"/><text orientation="bottom" width="1090" height="30" stroke="none" x="625" y="754" class="recharts-text recharts-cartesian-axis-tick-value" text-anchor="middle" fill="#666"><tspan x="625" dy="0.71em">Fast websocket (Rust)</tspan></text></g><g class="recharts-layer recharts-cartesian-axis-tick"><line orientation="bottom" width="1090" height="30" x="80" y="746" class="recharts-cartesian-axis-tick-line" stroke="#666" fill="none" x1="843" y1="752" x2="843" y2="746"/><text orientation="bottom" width="1090" height="30" stroke="none" x="843" y="754" class="recharts-text recharts-cartesian-axis-tick-value" text-anchor="middle" fill="#666"><tspan x="843" dy="0.71em">gorilla Websocket (Go)</tspan></text></g><g class="recharts-layer recharts-cartesian-axis-tick"><line orientation="bottom" width="1090" height="30" x="80" y="746" class="recharts-cartesian-axis-tick-line" stroke="#666" fill="none" x1="1061" y1="752" x2="1061" y2="746"/><text orientation="bottom" width="1090" height="30" stroke="none" x="1061" y="754" class="recharts-text recharts-cartesian-axis-tick-value" text-anchor="middle" fill="#666"><tspan x="1061" dy="0.71em">ws (Node.js)</tspan></text></g></g></g><g class="recharts-layer recharts-cartesian-axis recharts-yAxis yAxis"><line orientation="left" width="60" height="741" x="20" y="5" class="recharts-cartesian-axis-line" stroke="#666" fill="none" x1="80" y1="5" x2="80" y2="746"/><g class="recharts-cartesian-axis-ticks"><g class="recharts-layer recharts-cartesian-axis-tick"><line orientation="left" width="60" height="741" x="20" y="5" class="recharts-cartesian-axis-tick-line" stroke="#666" fill="none" x1="74" y1="746" x2="80" y2="746"/><text orientation="left" width="60" height="741" stroke="none" x="72" y="746" class="recharts-text recharts-cartesian-axis-tick-value" text-anchor="end" fill="#666"><tspan x="72" dy="0.355em">0</tspan></text></g><g class="recharts-layer recharts-cartesian-axis-tick"><line orientation="left" width="60" height="741" x="20" y="5" class="recharts-cartesian-axis-tick-line" stroke="#666" fill="none" x1="74" y1="560.75" x2="80" y2="560.75"/><text orientation="left" width="60" height="741" stroke="none" x="72" y="560.75" class="recharts-text recharts-cartesian-axis-tick-value" text-anchor="end" fill="#666"><tspan x="72" dy="0.355em">150000</tspan></text></g><g class="recharts-layer recharts-cartesian-axis-tick"><line orientation="left" width="60" height="741" x="20" y="5" class="recharts-cartesian-axis-tick-line" stroke="#666" fill="none" x1="74" y1="375.5" x2="80" y2="375.5"/><text orientation="left" width="60" height="741" stroke="none" x="72" y="375.5" class="recharts-text recharts-cartesian-axis-tick-value" text-anchor="end" fill="#666"><tspan x="72" dy="0.355em">300000</tspan></text></g><g class="recharts-layer recharts-cartesian-axis-tick"><line orientation="left" width="60" height="741" x="20" y="5" class="recharts-cartesian-axis-tick-line" stroke="#666" fill="none" x1="74" y1="190.25" x2="80" y2="190.25"/><text orientation="left" width="60" height="741" stroke="none" x="72" y="190.25" class="recharts-text recharts-cartesian-axis-tick-value" text-anchor="end" fill="#666"><tspan x="72" dy="0.355em">450000</tspan></text></g><g class="recharts-layer recharts-cartesian-axis-tick"><line orientation="left" width="60" height="741" x="20" y="5" class="recharts-cartesian-axis-tick-line" stroke="#666" fill="none" x1="74" y1="5" x2="80" y2="5"/><text orientation="left" width="60" height="741" stroke="none" x="72" y="9.5" class="recharts-text recharts-cartesian-axis-tick-value" text-anchor="end" fill="#666"><tspan x="72" dy="0.355em">600000</tspan></text></g></g></g><g class="recharts-layer recharts-bar"><g class="recharts-layer recharts-bar-rectangles"><g class="recharts-layer recharts-bar-rectangle"><path x="101.8" y="30.21005499999996" width="174" height="715.789945" radius="0" name="QPS For 8192 bytes / 1000 Connections" fill="#659ad2" class="recharts-rectangle" d="M 101.8,30.21005499999996 h 174 v 715.789945 h -174 Z"/></g><g class="recharts-layer recharts-bar-rectangle"><path x="319.8" y="41.63750999999996" width="174" height="704.36249" radius="0" name="QPS For 8192 bytes / 1000 Connections" fill="blue" class="recharts-rectangle" d="M 319.8,41.63750999999996 h 174 v 704.36249 h -174 Z"/></g><g class="recharts-layer recharts-bar-rectangle"><path x="537.8" y="474.81376000000006" width="174" height="271.18623999999994" radius="0" name="QPS For 8192 bytes / 1000 Connections" fill="Orange" class="recharts-rectangle" d="M 537.8,474.81376000000006 h 174 v 271.18623999999994 h -174 Z"/></g><g class="recharts-layer recharts-bar-rectangle"><path x="755.8" y="485.42735" width="174" height="260.57265" radius="0" name="QPS For 8192 bytes / 1000 Connections" fill="#50b7e0" class="recharts-rectangle" d="M 755.8,485.42735 h 174 v 260.57265 h -174 Z"/></g><g class="recharts-layer recharts-bar-rectangle"><path x="973.8" y="689.282625" width="174" height="56.71737499999995" radius="0" name="QPS For 8192 bytes / 1000 Connections" fill="green" class="recharts-rectangle" d="M 973.8,689.282625 h 174 v 56.71737499999995 h -174 Z"/></g></g><g class="recharts-layer"/></g></svg>